<svg width="196" height="34" fill="none" xmlns="http://www.w3.org/2000/svg"><path d="M13.932 7.956c3.264 0 5.664.66 7.2 1.98 1.56 1.32 2.34 3.048 2.34 5.184 0 .72-.096 1.524-.288 2.412-.456 1.968-1.308 3.696-2.556 5.184-1.248 1.464-2.784 2.604-4.608 3.42-1.8.792-3.756 1.188-5.868 1.188-3.336 0-5.808-.66-7.416-1.98C1.152 24 .36 22.224.36 20.016c0-.744.096-1.572.288-2.484a11.51 11.51 0 012.592-4.968C4.536 11.1 6.108 9.972 7.956 9.18c1.872-.816 3.864-1.224 5.976-1.224zm-.108 3.204c-.504 0-1.044.456-1.62 1.368-.552.888-1.212 2.58-1.98 5.076-.768 2.496-1.152 4.248-1.152 5.256 0 .528.084.888.252 1.08.168.168.396.252.684.252.504.048 1.02-.384 1.548-1.296.552-.912 1.236-2.688 2.052-5.328.744-2.328 1.116-4.02 1.116-5.076 0-.504-.084-.852-.252-1.044-.144-.192-.36-.288-.648-.288zM44.99 22.032c-.048.096-.072.24-.072.432 0 .168.036.3.108.396a.488.488 0 00.36.144c.288 0 .528-.12.72-.36.216-.264.36-.396.432-.396.12 0 .216.084.288.252.072.144.108.324.108.54.024.696-.204 1.38-.684 2.052-.48.648-1.188 1.188-2.124 1.62-.912.408-2.016.612-3.312.612-1.584 0-2.844-.36-3.78-1.08-.936-.744-1.416-1.728-1.44-2.952 0-.888.216-1.884.648-2.988l1.98-5.184c.12-.312.18-.564.18-.756 0-.312-.108-.552-.324-.72a.977.977 0 00-.72-.288c-.456 0-.924.216-1.404.648-.456.408-.828 1.08-1.116 2.016v-.072l-2.268 7.308c-.072.288-.108.54-.108.756 0 .312.06.564.18.756.12.168.288.336.504.504.168.168.288.312.36.432.072.096.084.228.036.396-.12.312-.36.54-.72.684-.36.144-.912.216-1.656.216h-8.208c-.624 0-1.08-.096-1.368-.288-.288-.216-.384-.492-.288-.828.096-.288.348-.54.756-.756.36-.192.66-.42.9-.684.24-.264.444-.684.612-1.26L29.042 5.22c.072-.216.108-.396.108-.54 0-.264-.072-.48-.216-.648a2.495 2.495 0 00-.504-.504c-.24-.192-.42-.36-.54-.504-.096-.144-.108-.336-.036-.576.144-.552.9-1.032 2.268-1.44a14.91 14.91 0 014.284-.612c1.392 0 2.412.264 3.06.792.672.528 1.008 1.248 1.008 2.16 0 .528-.084 1.044-.252 1.548l-1.944 6.336c.936-1.224 1.92-2.076 2.952-2.556a8.167 8.167 0 013.42-.72c1.464 0 2.64.444 3.528 1.332.912.888 1.368 2.04 1.368 3.456 0 .744-.12 1.476-.36 2.196l-2.196 7.092zm37.726 0c-.047.096-.072.24-.072.432 0 .168.036.3.108.396a.488.488 0 00.36.144c.288 0 .529-.12.72-.36.217-.264.36-.396.433-.396.12 0 .216.084.287.252.072.144.108.324.108.54.025.696-.203 1.38-.683 2.052-.48.648-1.189 1.188-2.124 1.62-.912.408-2.016.612-3.313.612-1.584 0-2.844-.36-3.78-1.08-.936-.744-1.416-1.728-1.44-2.952 0-.888.217-1.884.649-2.988l1.98-5.184c.12-.312.18-.564.18-.756 0-.312-.109-.552-.325-.72a.977.977 0 00-.72-.288c-.407 0-.828.18-1.26.54-.431.36-.816.924-1.151 1.692l-1.98 6.444c-.049.096-.072.24-.072.432 0 .168.035.3.108.396a.488.488 0 00.36.144c.287 0 .528-.12.72-.36.216-.264.36-.396.431-.396.12 0 .217.084.288.252.072.144.108.324.108.54.025.696-.203 1.38-.683 2.052-.48.648-1.189 1.188-2.124 1.62-.912.408-2.016.612-3.313.612-1.584 0-2.844-.36-3.78-1.08-.935-.744-1.415-1.728-1.44-2.952 0-.888.217-1.884.648-2.988l1.98-5.184c.12-.312.18-.564.18-.756 0-.312-.108-.552-.323-.72a.977.977 0 00-.72-.288c-.408 0-.828.18-1.26.54-.433.336-.793.888-1.08 1.656l-2.377 7.704a2.211 2.211 0 00-.144.756c0 .288.06.528.18.72.12.168.288.348.505.54.168.144.288.276.36.396.072.12.084.264.036.432-.096.312-.325.54-.684.684-.36.144-.925.216-1.693.216h-8.208c-.623 0-1.067-.096-1.331-.288-.288-.216-.397-.492-.325-.828.096-.288.349-.54.757-.756.36-.192.66-.42.9-.684.24-.264.444-.684.611-1.26l3.205-10.404c.047-.12.072-.288.072-.504 0-.264-.06-.468-.18-.612-.096-.144-.264-.324-.505-.54-.24-.192-.407-.36-.503-.504-.096-.144-.108-.336-.036-.576.144-.552.9-1.032 2.268-1.44a14.141 14.141 0 014.284-.648c1.176 0 2.1.324 2.772.972.695.648 1.032 1.536 1.008 2.664.983-1.368 2.016-2.316 3.096-2.844a8.154 8.154 0 013.564-.792c1.392 0 2.52.408 3.384 1.224.888.792 1.38 1.836 1.476 3.132 1.032-1.632 2.136-2.76 3.312-3.384 1.175-.648 2.46-.972 3.851-.972 1.465 0 2.64.444 3.528 1.332.913.888 1.368 2.04 1.368 3.456 0 .744-.12 1.476-.36 2.196l-2.196 7.092z" fill="#101010"/><path d="M104.932 7.956c1.056 0 1.896.432 2.52 1.296.648.84.972 1.992.972 3.456 0 1.272-.228 2.64-.684 4.104-.888 2.952-2.316 5.736-4.284 8.352-1.944 2.616-4.189 4.716-6.733 6.3-2.52 1.584-5.04 2.376-7.56 2.376-1.247 0-2.328-.216-3.24-.648-.888-.432-1.56-1.008-2.016-1.728-.48-.72-.72-1.488-.72-2.304 0-.36.06-.756.18-1.188.216-.672.576-1.188 1.08-1.548.504-.36 1.105-.54 1.8-.54 1.105 0 2.004.372 2.7 1.116.72.768 1.177 1.812 1.369 3.132 1.536-.072 2.951-.732 4.248-1.98-1.224-.216-2.136-.624-2.736-1.224-.577-.624-.972-1.584-1.189-2.88l-1.44-8.82c-.072-.456-.18-.768-.323-.936a.564.564 0 00-.504-.288c-.168 0-.373.084-.612.252-.217.168-.373.252-.469.252-.191 0-.287-.204-.287-.612 0-.336.06-.696.18-1.08.431-1.368 1.236-2.52 2.412-3.456 1.176-.96 2.543-1.44 4.103-1.44 1.537 0 2.665.456 3.385 1.368.743.912 1.224 2.316 1.44 4.212l1.08 7.92c.072.6.287.9.648.9.432 0 .936-.384 1.512-1.152.576-.792 1.14-1.908 1.692-3.348a6.772 6.772 0 01-1.656-2.232 6.417 6.417 0 01-.576-2.7c0-.744.096-1.416.288-2.016.288-.96.732-1.68 1.332-2.16.624-.504 1.32-.756 2.088-.756zm17.932-7.56c2.568 0 4.488.396 5.76 1.188 1.296.768 1.944 1.716 1.944 2.844 0 .912-.384 1.62-1.152 2.124-.744.48-1.728.72-2.952.72-1.128 0-2.004-.276-2.628-.828-.624-.552-.936-1.236-.936-2.052 0-.504.156-1.032.468-1.584-.72 0-1.32.18-1.8.54-.48.336-.852.924-1.116 1.764a5.63 5.63 0 00-.216 1.476c0 .576.096 1.032.288 1.368.216.312.516.468.9.468h2.124c1.248 0 1.872.384 1.872 1.152 0 .096-.024.24-.072.432a1.89 1.89 0 01-.9 1.188c-.432.264-1.092.396-1.98.396h-1.08l-3.564 11.664c-.072.288-.108.54-.108.756 0 .312.06.564.18.756.12.168.288.336.504.504.168.168.288.312.36.432.072.096.084.228.036.396-.12.312-.36.54-.72.684-.36.144-.912.216-1.656.216h-8.208c-.624 0-1.08-.096-1.368-.288-.288-.216-.384-.492-.288-.828.096-.288.348-.54.756-.756.36-.192.66-.42.9-.684.24-.264.444-.684.612-1.26l2.808-9.216c.12-.36.18-.732.18-1.116 0-.48-.108-.852-.324-1.116-.192-.288-.492-.6-.9-.936a8.605 8.605 0 01-.612-.54.966.966 0 01-.18-.576c-.024-.456.132-.78.468-.972.36-.192 1.032-.288 2.016-.288h.9a6.65 6.65 0 01-.252-1.8c0-.6.108-1.224.324-1.872.456-1.224 1.428-2.256 2.916-3.096 1.512-.84 3.744-1.26 6.696-1.26z" fill="#101010"/><path d="M137.084 7.956c3.264 0 5.664.66 7.2 1.98 1.56 1.32 2.34 3.048 2.34 5.184 0 .72-.096 1.524-.288 2.412-.456 1.968-1.308 3.696-2.556 5.184-1.248 1.464-2.784 2.604-4.608 3.42-1.8.792-3.756 1.188-5.868 1.188-3.336 0-5.808-.66-7.416-1.98-1.584-1.344-2.376-3.12-2.376-5.328 0-.744.096-1.572.288-2.484a11.51 11.51 0 012.592-4.968c1.296-1.464 2.868-2.592 4.716-3.384 1.872-.816 3.864-1.224 5.976-1.224zm-.108 3.204c-.504 0-1.044.456-1.62 1.368-.552.888-1.212 2.58-1.98 5.076-.768 2.496-1.152 4.248-1.152 5.256 0 .528.084.888.252 1.08.168.168.396.252.684.252.504.048 1.02-.384 1.548-1.296.552-.912 1.236-2.688 2.052-5.328.744-2.328 1.116-4.02 1.116-5.076 0-.504-.084-.852-.252-1.044-.144-.192-.36-.288-.648-.288zm23.733-3.204c3.264 0 5.664.66 7.2 1.98 1.56 1.32 2.34 3.048 2.34 5.184 0 .72-.096 1.524-.288 2.412-.456 1.968-1.308 3.696-2.556 5.184-1.248 1.464-2.784 2.604-4.608 3.42-1.8.792-3.756 1.188-5.868 1.188-3.336 0-5.808-.66-7.416-1.98-1.584-1.344-2.376-3.12-2.376-5.328 0-.744.096-1.572.288-2.484a11.51 11.51 0 012.592-4.968c1.296-1.464 2.868-2.592 4.716-3.384 1.872-.816 3.864-1.224 5.976-1.224zm-.108 3.204c-.504 0-1.044.456-1.62 1.368-.552.888-1.212 2.58-1.98 5.076-.768 2.496-1.152 4.248-1.152 5.256 0 .528.084.888.252 1.08.168.168.396.252.684.252.504.048 1.02-.384 1.548-1.296.552-.912 1.236-2.688 2.052-5.328.744-2.328 1.116-4.02 1.116-5.076 0-.504-.084-.852-.252-1.044-.144-.192-.36-.288-.648-.288zm29.925 10.656a1.985 1.985 0 00-.072.396c0 .168.048.3.144.396a.488.488 0 00.36.144c.288 0 .528-.12.72-.36.216-.264.36-.396.432-.396.12 0 .216.084.288.252.072.168.108.36.108.576.024.648-.228 1.308-.756 1.98-.504.672-1.188 1.224-2.052 1.656a6.19 6.19 0 01-2.808.648c-1.2 0-2.244-.228-3.132-.684-.888-.456-1.5-1.056-1.836-1.8-.648.84-1.392 1.464-2.232 1.872a6.02 6.02 0 01-2.664.612 6.108 6.108 0 01-3.096-.828c-.936-.552-1.692-1.332-2.268-2.34-.552-1.032-.828-2.196-.828-3.492 0-2.184.408-4.236 1.224-6.156.84-1.944 2.004-3.504 3.492-4.68 1.488-1.2 3.18-1.8 5.076-1.8 1.032 0 1.908.12 2.628.36.744.24 1.416.6 2.016 1.08l1.224-4.032c.072-.216.108-.396.108-.54 0-.264-.072-.48-.216-.648a2.495 2.495 0 00-.504-.504c-.24-.192-.42-.36-.54-.504-.096-.144-.108-.336-.036-.576.144-.552.9-1.032 2.268-1.44a14.91 14.91 0 014.284-.612c1.392 0 2.412.264 3.06.792.672.528 1.008 1.248 1.008 2.16 0 .528-.084 1.044-.252 1.548l-5.148 16.92zM184.514 11.7c-.384-.336-.804-.504-1.26-.504-.696 0-1.38.516-2.052 1.548-.672 1.032-1.212 2.28-1.62 3.744-.408 1.464-.6 2.784-.576 3.96 0 1.32.432 1.98 1.296 1.98.312 0 .576-.12.792-.36.216-.264.42-.684.612-1.26l2.808-9.108z" fill="#101010"/></svg>